<svg width="145" height="40" viewBox="0 0 145 40" fill="none" xmlns="http://www.w3.org/2000/svg">
<mask id="path-1-inside-1_1_572" fill="white">
<path d="M5.8437 20.7711C5.45318 20.3805 5.45318 19.7474 5.8437 19.3569L7.73143 17.4691C10.0746 15.126 13.8736 15.126 16.2167 17.4691L18.1044 19.3569C18.495 19.7474 18.495 20.3805 18.1044 20.7711L16.2167 22.6588C13.8736 25.0019 10.0746 25.0019 7.73143 22.6588L5.8437 20.7711Z"/>
</mask>
<path d="M5.8437 20.7711C5.45318 20.3805 5.45318 19.7474 5.8437 19.3569L7.73143 17.4691C10.0746 15.126 13.8736 15.126 16.2167 17.4691L18.1044 19.3569C18.495 19.7474 18.495 20.3805 18.1044 20.7711L16.2167 22.6588C13.8736 25.0019 10.0746 25.0019 7.73143 22.6588L5.8437 20.7711Z" stroke="#3A3845" stroke-width="5" mask="url(#path-1-inside-1_1_572)"/>
<mask id="path-2-inside-2_1_572" fill="white">
<path d="M21.9318 20.7711C21.5413 20.3805 21.5413 19.7474 21.9318 19.3569L23.8196 17.4691C26.1627 15.126 29.9617 15.126 32.3048 17.4691L34.1926 19.3569C34.5831 19.7474 34.5831 20.3805 34.1926 20.7711L32.3048 22.6588C29.9617 25.0019 26.1627 25.0019 23.8196 22.6588L21.9318 20.7711Z"/>
</mask>
<path d="M21.9318 20.7711C21.5413 20.3805 21.5413 19.7474 21.9318 19.3569L23.8196 17.4691C26.1627 15.126 29.9617 15.126 32.3048 17.4691L34.1926 19.3569C34.5831 19.7474 34.5831 20.3805 34.1926 20.7711L32.3048 22.6588C29.9617 25.0019 26.1627 25.0019 23.8196 22.6588L21.9318 20.7711Z" stroke="#3A3845" stroke-width="5" mask="url(#path-2-inside-2_1_572)"/>
<mask id="path-3-inside-3_1_572" fill="white">
<path d="M19.3111 5.88972C19.7016 5.4992 20.3348 5.4992 20.7253 5.88972L22.613 7.77745C24.9562 10.1206 24.9562 13.9196 22.613 16.2627L20.7253 18.1505C20.3348 18.541 19.7016 18.541 19.3111 18.1505L17.4234 16.2627C15.0802 13.9196 15.0802 10.1206 17.4234 7.77745L19.3111 5.88972Z"/>
</mask>
<path d="M19.3111 5.88972C19.7016 5.4992 20.3348 5.4992 20.7253 5.88972L22.613 7.77745C24.9562 10.1206 24.9562 13.9196 22.613 16.2627L20.7253 18.1505C20.3348 18.541 19.7016 18.541 19.3111 18.1505L17.4234 16.2627C15.0802 13.9196 15.0802 10.1206 17.4234 7.77745L19.3111 5.88972Z" stroke="#3A3845" stroke-width="5" mask="url(#path-3-inside-3_1_572)"/>
<mask id="path-4-inside-4_1_572" fill="white">
<path d="M19.2054 21.1788C19.5959 20.7883 20.2291 20.7883 20.6196 21.1788L22.5073 23.0665C24.8505 25.4097 24.8505 29.2087 22.5073 31.5518L20.6196 33.4395C20.2291 33.83 19.5959 33.83 19.2054 33.4395L17.3176 31.5518C14.9745 29.2087 14.9745 25.4097 17.3176 23.0665L19.2054 21.1788Z"/>
</mask>
<path d="M19.2054 21.1788C19.5959 20.7883 20.2291 20.7883 20.6196 21.1788L22.5073 23.0665C24.8505 25.4097 24.8505 29.2087 22.5073 31.5518L20.6196 33.4395C20.2291 33.83 19.5959 33.83 19.2054 33.4395L17.3176 31.5518C14.9745 29.2087 14.9745 25.4097 17.3176 23.0665L19.2054 21.1788Z" stroke="#3A3845" stroke-width="5" mask="url(#path-4-inside-4_1_572)"/>
<path d="M23.75 2.13428C24.8356 2.04414 25.7219 2.06297 26.5273 2.34912C27.0049 2.51878 27.3852 2.91331 27.9238 3.65381C28.3914 4.29671 29.0508 5.33201 30.0088 6.00732C31.051 6.742 32.4546 7.24144 33.4277 7.65479C34.5624 8.13676 35.1618 8.51404 35.4062 8.92236C35.7581 9.51001 35.9434 10.2542 36.1162 11.2622C36.2784 12.2078 36.4328 13.4214 36.79 14.6011C37.1129 15.6672 37.7983 16.7918 38.2471 17.6382C38.7538 18.594 39.0526 19.3357 39.0527 19.9995C39.0527 20.6206 38.7878 21.1882 38.2959 21.9644C37.8568 22.6571 37.1304 23.646 36.79 24.77C36.419 25.9953 36.3515 27.4005 36.2344 28.4253C36.1051 29.5559 35.915 30.3733 35.4697 30.9829C35.0282 31.5874 34.3051 32.0226 33.2715 32.4966C32.338 32.9246 31.0325 33.4243 30.0088 34.146C29.0673 34.8097 28.4119 35.7859 27.9434 36.397C27.4143 37.087 27.0289 37.4727 26.5273 37.6509C25.7219 37.937 24.8356 37.9559 23.75 37.8657C22.7494 37.7826 21.4061 37.5786 20.1514 37.5786C18.8967 37.5786 17.5533 37.7826 16.5527 37.8657C15.4671 37.9559 14.5809 37.937 13.7754 37.6509C13.0442 37.3911 12.4454 36.9273 11.7764 36.2915C11.1596 35.7054 10.365 34.8404 9.47852 34.1704C8.61188 33.5155 7.53 32.9694 6.74805 32.5142C5.89128 32.0153 5.2528 31.5576 4.83301 30.9829C4.3503 30.3221 4.08122 29.445 3.85938 28.3247C3.65676 27.3015 3.4773 25.927 3.12695 24.77C2.80719 23.714 2.226 22.7545 1.87012 22.062C1.48359 21.3098 1.25 20.6984 1.25 19.9995C1.25014 19.3357 1.5489 18.594 2.05566 17.6382C2.50441 16.7918 3.1898 15.6672 3.5127 14.6011C3.87951 13.3897 3.95041 12.1505 4.06543 11.2817C4.18834 10.3535 4.36649 9.65575 4.83301 9.01709C5.23894 8.46138 5.85618 8.04418 6.71289 7.58252C7.49309 7.16212 8.5898 6.6545 9.47852 5.98291C10.3844 5.29824 11.1798 4.38493 11.8008 3.76123C12.4777 3.08147 13.0676 2.60057 13.7754 2.34912C14.5809 2.06297 15.4671 2.04414 16.5527 2.13428C17.5533 2.21736 18.8967 2.42139 20.1514 2.42139C21.4061 2.42139 22.7494 2.21736 23.75 2.13428Z" stroke="#3A3845" stroke-width="2.5"/>
<path d="M72.2271 9.73975C72.3449 9.73974 72.458 9.79573 72.5417 9.89552C72.6254 9.99532 72.673 10.1308 72.6741 10.2726V29.5529C72.6741 29.6947 72.6275 29.8307 72.5446 29.9314C72.4616 30.0321 72.349 30.0893 72.2311 30.0906H70.0486C69.9308 30.0893 69.8181 30.0321 69.7352 29.9314C69.6522 29.8307 69.6057 29.6947 69.6057 29.5529V17.011C69.4339 17.179 69.2567 17.3404 69.0741 17.4955C68.5547 17.9314 68.0272 18.2996 67.5158 18.6581C67.0044 19.0166 66.6661 19.2975 66.2635 19.5834C65.5096 20.1072 64.8532 20.8117 64.3351 21.6534C63.8169 22.4951 63.4481 23.4558 63.2514 24.4761C63.2294 24.5948 63.1742 24.7009 63.0951 24.7767C63.016 24.8525 62.9177 24.8934 62.8165 24.8927H60.7347C60.6336 24.8934 60.5353 24.8525 60.4562 24.7767C60.3771 24.7009 60.3219 24.5948 60.2998 24.4761C60.1032 23.4545 59.734 22.4926 59.2151 21.65C58.6962 20.8075 58.0388 20.1023 57.2838 19.5785C56.8811 19.2927 56.4784 18.9778 56.0315 18.6532C55.5845 18.3287 54.9925 17.9266 54.4731 17.4906C54.2905 17.3388 54.1134 17.1774 53.9416 17.0062V29.5529C53.9416 29.6947 53.895 29.8307 53.8121 29.9314C53.7291 30.0321 53.6165 30.0893 53.4986 30.0906H51.3201C51.2023 30.0893 51.0896 30.0321 51.0067 29.9314C50.9237 29.8307 50.8772 29.6947 50.8772 29.5529V10.2775C50.8772 10.1349 50.9243 9.99808 51.0081 9.89724C51.0919 9.7964 51.2056 9.73975 51.3242 9.73975H53.4785C53.5834 9.74149 53.6845 9.78758 53.764 9.86995C53.8435 9.95231 53.8964 10.0657 53.9134 10.1903C54.0342 11.1301 54.4932 13.3245 56.1724 14.5501C56.6153 14.865 57.0542 15.2186 57.5375 15.5626C58.0207 15.9065 58.4918 16.2214 58.9509 16.609C59.8883 17.3587 60.7271 18.2731 61.4394 19.3218C61.4797 19.3832 61.5311 19.4329 61.5897 19.4671C61.6483 19.5013 61.7125 19.519 61.7776 19.519C61.8427 19.519 61.907 19.5013 61.9656 19.4671C62.0242 19.4329 62.0756 19.3832 62.1159 19.3218C62.8267 18.2718 63.6641 17.3557 64.6004 16.6041C65.0796 16.2166 65.5789 15.8678 66.0178 15.5577C66.4567 15.2477 66.948 14.865 67.3789 14.5501C69.0621 13.3439 69.5211 11.1591 69.6419 10.1903C69.6589 10.0657 69.7118 9.95231 69.7913 9.86995C69.8708 9.78758 69.9719 9.74149 70.0768 9.73975H72.2271Z" fill="#3A3845"/>
<path d="M95.4617 19.9152C95.4617 25.5214 91.0188 30.0906 85.554 30.0906C80.0893 30.0906 75.6464 25.5262 75.6464 19.9152C75.6464 14.3042 80.0893 9.73975 85.554 9.73975C91.0188 9.73975 95.4617 14.3042 95.4617 19.9152ZM85.554 13.4368C81.81 13.4368 78.765 16.3441 78.765 19.9152C78.765 23.4863 81.81 26.3693 85.554 26.3693C89.298 26.3693 92.3471 23.4621 92.3471 19.8958C92.3471 16.3296 89.298 13.4368 85.554 13.4368Z" fill="#3A3845"/>
<path d="M118.249 19.9152C118.249 25.5214 113.584 30.0906 107.846 30.0906C102.108 30.0906 97.4432 25.5262 97.4432 19.9152C97.4432 14.3042 102.108 9.73975 107.846 9.73975C113.584 9.73975 118.249 14.3042 118.249 19.9152ZM107.846 13.4368C103.915 13.4368 100.714 16.3441 100.714 19.9152C100.714 23.4863 103.915 26.3693 107.846 26.3693C111.777 26.3693 114.975 23.4621 114.975 19.8958C114.975 16.3296 111.765 13.4368 107.846 13.4368Z" fill="#3A3845"/>
<path d="M135.979 19.765V10.2727C135.979 10.2028 135.99 10.1334 136.013 10.0688C136.035 10.0041 136.068 9.94535 136.109 9.89586C136.15 9.84636 136.199 9.8071 136.253 9.78032C136.307 9.75353 136.365 9.73975 136.423 9.73975H138.611C138.67 9.73975 138.727 9.75353 138.781 9.78032C138.835 9.8071 138.884 9.84636 138.925 9.89586C138.967 9.94535 138.999 10.0041 139.022 10.0688C139.044 10.1334 139.055 10.2028 139.055 10.2727V29.5576C139.055 29.6276 139.044 29.6969 139.022 29.7616C138.999 29.8263 138.967 29.885 138.925 29.9345C138.884 29.984 138.835 30.0233 138.781 30.0501C138.727 30.0768 138.67 30.0906 138.611 30.0906H136.443C136.385 30.0906 136.327 30.0768 136.273 30.0501C136.219 30.0233 136.17 29.984 136.129 29.9345C136.088 29.885 136.055 29.8263 136.033 29.7616C136.01 29.6969 135.999 29.6276 135.999 29.5576V28.041C136.001 27.5662 135.913 27.0972 135.741 26.6697C135.099 25.1095 133.439 22.2216 129.563 20.453C127.926 19.7268 126.392 18.7003 125.017 17.4101C124.952 17.3464 124.873 17.3062 124.79 17.2944C124.707 17.2826 124.622 17.2996 124.547 17.3433C124.471 17.3871 124.408 17.4559 124.364 17.5415C124.32 17.6272 124.297 17.7262 124.298 17.8268V29.5576C124.298 29.699 124.251 29.8346 124.168 29.9345C124.085 30.0345 123.972 30.0906 123.854 30.0906H121.666C121.548 30.0906 121.435 30.0345 121.352 29.9345C121.268 29.8346 121.222 29.699 121.222 29.5576V10.2727C121.222 10.1314 121.268 9.99581 121.352 9.89586C121.435 9.7959 121.548 9.73975 121.666 9.73975H123.794C123.882 9.74186 123.968 9.77579 124.04 9.83715C124.112 9.8985 124.167 9.98443 124.197 10.0838C124.549 11.2273 126.01 14.9292 130.633 16.9934C132.306 17.7276 133.862 18.8011 135.232 20.1671C135.296 20.234 135.375 20.2772 135.459 20.2918C135.544 20.3063 135.629 20.2915 135.707 20.2491C135.784 20.2068 135.85 20.1386 135.896 20.0528C135.942 19.967 135.967 19.8671 135.967 19.765H135.979Z" fill="#3A3845"/>
<path d="M142.028 28.0556C142.028 27.6529 142.115 27.2592 142.278 26.9244C142.442 26.5897 142.674 26.3288 142.946 26.1749C143.218 26.0211 143.517 25.981 143.805 26.06C144.094 26.1389 144.358 26.3332 144.566 26.6183C144.774 26.9034 144.915 27.2665 144.972 27.6616C145.029 28.0567 144.999 28.4661 144.886 28.8378C144.773 29.2096 144.582 29.5271 144.337 29.7501C144.092 29.9731 143.804 30.0917 143.51 30.0907C143.315 30.0907 143.122 30.038 142.942 29.9357C142.762 29.8333 142.598 29.6834 142.461 29.4943C142.323 29.3053 142.214 29.0809 142.14 28.834C142.065 28.5871 142.027 28.3226 142.028 28.0556Z" fill="#3A3845"/>
</svg>
