<svg width="20" height="19" viewBox="0 0 20 19" fill="none" xmlns="http://www.w3.org/2000/svg">
<path d="M4.98383 4.54098H18.5577L16.6253 12.7538C16.3743 13.8201 15.4229 14.5738 14.3274 14.5738H9.45672C8.38557 14.5738 7.4487 13.8526 7.17461 12.8172L4.98383 4.54098ZM4.98383 4.54098L4.09858 1H1.44282" stroke="#595667" stroke-width="1.5" stroke-linecap="round" stroke-linejoin="round"/>
<path d="M7.64055 18.9998C8.29244 18.9998 8.82089 18.4714 8.82089 17.8195C8.82089 17.1676 8.29244 16.6392 7.64055 16.6392C6.98867 16.6392 6.46022 17.1676 6.46022 17.8195C6.46022 18.4714 6.98867 18.9998 7.64055 18.9998Z" fill="#595667"/>
<path d="M15.9036 18.9998C16.5555 18.9998 17.0839 18.4714 17.0839 17.8195C17.0839 17.1676 16.5555 16.6392 15.9036 16.6392C15.2517 16.6392 14.7233 17.1676 14.7233 17.8195C14.7233 18.4714 15.2517 18.9998 15.9036 18.9998Z" fill="#595667"/>
</svg>
